<?xml version="1.0" encoding="utf-8"?>
<!-- Generator: Adobe Illustrator 23.1.0, SVG Export Plug-In . SVG Version: 6.00 Build 0)  -->
<svg version="1.1" id="Layer_1" xmlns="http://www.w3.org/2000/svg" xmlns:xlink="http://www.w3.org/1999/xlink" x="0px" y="0px"
	 viewBox="0 0 358 116.9" style="enable-background:new 0 0 358 116.9;" xml:space="preserve">
<style type="text/css">
	.st0{display:none;}
	.st1{fill:#F45145;}
</style>
<g id="Layer_0_xA0_Image_1_" class="st0">
</g>
<g id="logo_1_">
	<g id="R">
		<g>
			<path class="st1" d="M227.5,23.2c8.2,0,17.3,3.2,17.3,14.3c0,21-22.5,44.5-45.6,47.1c6.5,8.9,14,19.4,25.7,19.4
				c4.1,0,5.4-5.6,9.9-5.6c1.3,0,2.2,0.4,2.2,1.3c0,4.8-9.9,6.5-13.2,6.5c-13.2,0-21-11.7-27.6-21.2c-1.5,0.2-3,0.2-4.3,0.2
				c-4.8,0-8.2-0.6-13.2-2.4c-5.6,12.3-4.5,13.8-5,13.8c-2.6,0-3-0.9-3-2.2c0-4.5,1.1-9.3,3.2-15.1c-0.9-1.3-1.7-2.8-1.9-4.5
				c-0.4-3.9,2.2-7.6,7.1-7.1c7.6-14.5,17.3-27.6,17.3-27.6c0.9-1.3,1.5-1.7,1.9-1.7c1.5,0,2.4,2.6,2.4,3.7c0,1.7-0.9,3.2-0.9,3.2
				l-5.4,9.1c-3.7,6-6.7,10.6-8.9,14.9c5.4,3,9.1,8.4,12.3,12.5c17.9-4.1,40-22.9,40-43.8c0-5.6-2.4-10.4-10.2-12.1
				c-35.9,0-65.9,24.2-99.6,36.1c-2.6,0.9-4.8,1.5-7.6,0.6c0,0-11-3.2-11-10.2c0-0.9,0.6-1.5,1.5-1.5c6.5,0,4.5,9.5,11.2,9.5
				c1.3,0,3.9-0.4,5.2-1.1C159.7,47.8,191.4,23.2,227.5,23.2z M177.6,70.7c-2.6,0.6-3.9,2.6-2.6,5.6
				C175.9,74.4,176.7,72.7,177.6,70.7z M191.2,82.6c1.1,0,2.2,0,3.2-0.2c-3-4.3-6.3-8.2-10.4-10.4c-1.7,3.2-3,6-4.3,8.4
				C183.2,81.7,186.9,82.6,191.2,82.6z"/>
		</g>
	</g>
	<g id="ise">
		<g>
			<path class="st1" d="M263.3,35.1c0.9,0,1.3,0.4,1.3,1.1c0,0.7-0.5,1.6-0.7,1.8c-14.6,20-15.8,25.8-15.8,25.8
				c-0.2,0.5-0.2,0.9-0.2,1.3c0,1.3,0.9,1.5,1.5,1.5c2.7,0.4,13.1-7.8,13.1-8.2c0.4-0.2,0.7-0.2,0.9-0.2s0.4,0.2,0.4,0.4
				c0,0.7-1.3,2.2-1.3,2.2C253,69.2,249.4,69,249,69c-4.2-0.2-4-4-4-4c0-6.6,5.1-16.2,12.6-26.9C258.6,36.7,261.3,35.1,263.3,35.1z
				 M263.5,29.1c0-2.5,2.9-6.6,4.9-6.6c0.7,0,1.3,0.5,1.3,1.6c0,2.9-2.9,6.6-4.7,6.6c-0.4,0-0.5,0-0.7-0.2
				C263.7,30.4,263.5,29.8,263.5,29.1z"/>
			<path class="st1" d="M257.9,59.1c0-3.3,2.7-6.6,6.6-6.6c0.7,0,1.8,0.2,2.7,0.5c2.4-3.1,5.1-5.6,11.6-16.4c0.2-0.2-1.1-2.7,2.7-2
				c4.4,0.9,6.2,19.8,1.3,27.3c2.7,0.2,7.1-2,7.6-2c0.2,0,0.2,0,0.2,0.2c0,0.7-3.6,4-8,4c-0.4,0-0.9,0-1.3-0.2
				c-4.5,4.9-7.6,4.6-11.3,4.7c-4.4,0.2-8.7-1.8-11.1-5.8C258.2,61.7,257.9,60.6,257.9,59.1z M264.6,54.8c-2,0-4.4,2.5-4.4,5.1
				c0,0.4,0,0.5,0.2,0.9c1.3-1.6,3.3-3.8,5.1-5.8C265.2,54.9,265,54.8,264.6,54.8z M260.8,61.9c1.5,2.5,5.8,4.6,9.5,4.6
				c3.5,0,5.8-1.6,7.3-3.8c-3.5-1.8-7.1-4.6-10-6.6C265.2,58.4,262.6,60.6,260.8,61.9z M269.2,54.2c3.3,2.2,6.7,4.9,9.8,6.4
				c3.3-5.6,2.4-20.2,0.9-20.4c-3.1,4.5-6.4,9.5-9.8,13.1C269.7,53.7,269.5,54,269.2,54.2z"/>
			<path class="st1" d="M316.5,52.2c0.5,0.4-0.9,3.1-2.2,4.7c-3.5,4-5.6,5.6-10,8.2c-4,2.2-14.6,7.6-16.7,0
				c-2.2-8.2,9.6-25.7,17.5-29.3c2.7-1.5,6.4-1.5,7.6,2c4.4,12.2-11.3,18.4-19.3,22.2c-0.7,0.2-1.3,0.4-2,0.5
				c-0.7,2-0.9,3.8-0.5,5.3c1.1,2.4,8.9-0.7,12.4-2.9c4.9-3.1,6-4.2,9.3-7.5C313.6,53.9,315.8,51.9,316.5,52.2z M292.6,57.7
				c8.4-3.5,20-9.5,17.8-18.2c-0.5-1.1-2.5,0-4.4,1.5C300.8,44.6,295.7,51.3,292.6,57.7z"/>
		</g>
	</g>
	<g id="COMMERCE">
		<g>
			<path class="st1" d="M239.3,94.9c-1.2,0.7-2.8,1-4.6,1c-2.4,0-4.3-0.8-5.7-2.3s-2.2-3.6-2.2-6.1c0-2.7,0.8-4.9,2.4-6.5
				s3.7-2.5,6.2-2.5c1.6,0,2.9,0.2,4,0.7v2.1c-1.2-0.7-2.5-1-4-1c-1.9,0-3.5,0.6-4.7,1.9s-1.8,3-1.8,5.2c0,2,0.6,3.7,1.7,4.9
				s2.6,1.8,4.4,1.8c1.7,0,3.1-0.4,4.4-1.1L239.3,94.9L239.3,94.9z"/>
			<path class="st1" d="M249.5,95.9c-2.4,0-4.3-0.8-5.7-2.4s-2.1-3.6-2.1-6.1c0-2.7,0.7-4.9,2.2-6.5s3.4-2.4,6-2.4
				c2.3,0,4.2,0.8,5.6,2.3s2.1,3.6,2.1,6.1c0,2.7-0.7,4.9-2.2,6.5S251.9,95.9,249.5,95.9z M249.6,80.3c-1.8,0-3.2,0.6-4.3,1.9
				s-1.7,2.9-1.7,5s0.5,3.7,1.6,5s2.5,1.9,4.2,1.9c1.8,0,3.3-0.6,4.4-1.8s1.6-2.9,1.6-5.1s-0.5-3.9-1.5-5.1S251.4,80.3,249.6,80.3z"
				/>
			<path class="st1" d="M277.9,95.6h-2V84.3c0-0.9,0.1-2,0.2-3.3l0,0c-0.2,0.8-0.4,1.3-0.5,1.6l-5.7,12.9h-1l-5.7-12.8
				c-0.2-0.4-0.3-0.9-0.5-1.7l0,0c0.1,0.7,0.1,1.8,0.1,3.3v11.2h-1.9V78.8h2.6l5.2,11.7c0.4,0.9,0.7,1.6,0.8,2h0.1
				c0.3-0.9,0.6-1.6,0.8-2.1l5.3-11.7h2.5L277.9,95.6L277.9,95.6z"/>
			<path class="st1" d="M299.5,95.6h-2V84.3c0-0.9,0.1-2,0.2-3.3l0,0c-0.2,0.8-0.4,1.3-0.5,1.6l-5.7,12.9h-1l-5.7-12.8
				c-0.2-0.4-0.3-0.9-0.5-1.7l0,0c0.1,0.7,0.1,1.8,0.1,3.3v11.2h-1.9V78.8h2.6l5.2,11.7c0.4,0.9,0.7,1.6,0.8,2h0.1
				c0.3-0.9,0.6-1.6,0.8-2.1l5.3-11.7h2.5L299.5,95.6L299.5,95.6z"/>
			<path class="st1" d="M312.8,95.6h-8.9V78.8h8.5v1.8h-6.5v5.6h6.1V88h-6.1v5.9h6.9V95.6z"/>
			<path class="st1" d="M328.1,95.6h-2.3l-2.8-4.7c-0.3-0.4-0.5-0.8-0.8-1.1s-0.5-0.6-0.7-0.8s-0.5-0.3-0.8-0.4s-0.6-0.1-1-0.1h-1.6
				v7.1h-2V78.8h5c0.7,0,1.4,0.1,2,0.3s1.2,0.5,1.6,0.8s0.8,0.8,1.1,1.4s0.4,1.2,0.4,2c0,0.6-0.1,1.1-0.3,1.6s-0.4,0.9-0.8,1.3
				s-0.7,0.7-1.2,1s-1,0.5-1.5,0.6l0,0c0.3,0.1,0.5,0.3,0.7,0.4s0.4,0.3,0.6,0.6s0.4,0.5,0.6,0.7s0.4,0.6,0.6,1L328.1,95.6z
				 M318,80.6v6.1h2.7c0.5,0,0.9-0.1,1.4-0.2s0.8-0.4,1.1-0.6s0.5-0.6,0.7-1s0.3-0.9,0.3-1.4c0-0.9-0.3-1.6-0.9-2.1
				s-1.4-0.8-2.5-0.8H318L318,80.6z"/>
			<path class="st1" d="M341.8,94.9c-1.2,0.7-2.8,1-4.6,1c-2.4,0-4.3-0.8-5.7-2.3s-2.2-3.6-2.2-6.1c0-2.7,0.8-4.9,2.4-6.5
				s3.7-2.5,6.2-2.5c1.6,0,2.9,0.2,4,0.7v2.1c-1.2-0.7-2.5-1-4-1c-1.9,0-3.5,0.6-4.7,1.9s-1.8,3-1.8,5.2c0,2,0.6,3.7,1.7,4.9
				s2.6,1.8,4.4,1.8c1.7,0,3.1-0.4,4.4-1.1L341.8,94.9L341.8,94.9z"/>
			<path class="st1" d="M354.1,95.6h-8.9V78.8h8.5v1.8h-6.6v5.6h6.1V88h-6.1v5.9h6.9v1.7H354.1z"/>
		</g>
	</g>
	<g id="Group_1_1_">
		<g id="Forma_1">
			<g>
				<path class="st1" d="M95,64.6c-0.3-0.5-0.9-0.7-1.4-0.7H59c-1,0-1.8,0.8-1.8,1.8s0.8,1.8,1.8,1.8h32.2l-1.3,4h-27
					c-1,0-1.8,0.8-1.8,1.8s0.8,1.8,1.8,1.8h25.8l-1.5,4.6H65c-1,0-1.8,0.8-1.8,1.8s0.8,1.8,1.8,1.8h21.1l-1.2,3.9H61.1l-9.7-28
					c-0.2-0.5-0.5-0.9-1-1.1L42,54.8c-0.9-0.4-2,0.1-2.3,1c-0.4,0.9,0.1,2,1,2.3l7.6,3l9.3,26.8c-0.4,0.1-0.8,0.5-0.9,0.9L54,96.3
					c-0.2,0.5-0.1,1,0.2,1.4c0.3,0.4,0.7,0.6,1.2,0.6h1.4c-0.9,0.9-1.4,2.2-1.4,3.6c0,3,2.4,5.4,5.4,5.4s5.4-2.4,5.4-5.4
					c0-1.4-0.5-2.6-1.4-3.6h11.7c-0.9,0.9-1.4,2.2-1.4,3.6c0,3,2.4,5.4,5.4,5.4s5.4-2.4,5.4-5.4c0-1.4-0.5-2.6-1.4-3.6h1.7
					c0.8,0,1.5-0.7,1.5-1.5s-0.7-1.5-1.5-1.5H57.5l1.7-4.6c0.2,0.1,0.4,0.1,0.7,0.1h26.3c0.8,0,1.5-0.5,1.7-1.2l7.5-23.3
					C95.5,65.7,95.4,65.1,95,64.6z M80.5,99.4c1.3,0,2.4,1.1,2.4,2.4s-1.1,2.4-2.4,2.4s-2.4-1.1-2.4-2.4S79.1,99.4,80.5,99.4z
					 M60.8,99.4c1.3,0,2.4,1.1,2.4,2.4s-1.1,2.4-2.4,2.4s-2.4-1.1-2.4-2.4S59.4,99.4,60.8,99.4z"/>
			</g>
		</g>
		<g id="Forma_1_1_">
			<g>
				<path class="st1" d="M39.7,95c1.1,1.4,3.1,1.5,4.5,0.4c1.3-1.1,1.5-3.1,0.4-4.5c-4.8-5.7-7.4-13-7.4-20.5
					c0-17.7,14.3-32,31.8-32c17.6,0,31.8,14.4,31.8,32c0,7.5-2.6,14.8-7.4,20.5c-1.1,1.4-0.9,3.4,0.4,4.5c0.6,0.5,1.3,0.7,2,0.7
					c0.9,0,1.8-0.4,2.4-1.1c5.7-6.9,8.9-15.6,8.9-24.6C107.1,49.2,90,32,68.9,32S30.7,49.2,30.7,70.4C30.8,79.3,34,88.1,39.7,95z
					 M65.8,20.2c0,1.8,1.4,3.2,3.2,3.2c1.8,0,3.2-1.4,3.2-3.2V9.1c0-0.3,0-0.5-0.1-0.8V7.2c0-1.8-1.4-3.2-3.2-3.2
					c-1.8,0-3.2,1.4-3.2,3.2v11.1c0,0.3,0,0.5,0.1,0.8V20.2z M105.6,36.7L105.6,36.7L105.6,36.7c0.8,0,1.6-0.3,2.2-0.9l8.7-8.7
					c1.2-1.2,1.2-3.3,0-4.5c-0.6-0.6-1.4-0.9-2.2-0.9c-0.8,0-1.6,0.3-2.2,0.9l-8.7,8.7c-1.2,1.2-1.2,3.3,0,4.5
					C104,36.4,104.8,36.7,105.6,36.7z M126.2,106.7H11.6c-1.8,0-3.2,1.4-3.2,3.2c0,1.8,1.4,3.2,3.2,3.2h114.6c1.8,0,3.2-1.4,3.2-3.2
					C129.4,108.2,128,106.7,126.2,106.7z M131.7,67.3h-11c-1.8,0-3.2,1.4-3.2,3.2c0,1.8,1.4,3.2,3.2,3.2h11c1.8,0,3.2-1.4,3.2-3.2
					S133.5,67.3,131.7,67.3z M30,35.9c0.6,0.6,1.4,0.9,2.2,0.9s1.6-0.3,2.2-0.9c0,0,0,0,0.1-0.1c0,0,0,0,0.1,0
					c1.2-1.2,1.2-3.3,0-4.5l-8.7-8.7c-1.2-1.2-3.2-1.2-4.5,0c0,0,0,0-0.1,0.1c0,0,0,0-0.1,0c-1.2,1.2-1.2,3.3,0,4.5L30,35.9z
					 M19.4,72.7c0.6-0.6,1-1.4,1-2.3c0-1.8-1.4-3.2-3.2-3.2h-11c-0.9,0-1.7,0.4-2.3,1c-0.6,0.6-1,1.4-1,2.3c0,1.8,1.4,3.2,3.2,3.2
					h11C18,73.6,18.8,73.3,19.4,72.7z"/>
			</g>
		</g>
	</g>
</g>
</svg>
